Coordinates
version=1
nRows=17
nColumns=24
inDegrees=yes

Units are S.I. units (second, meters, Newtons, ...)
Angles are in degrees.

endheader
time	pelvis_tilt	pelvis_list	pelvis_rotation	pelvis_tx	pelvis_ty	pelvis_tz	hip_flexion_r	hip_adduction_r	hip_rotation_r	knee_angle_r	ankle_angle_r	subtalar_angle_r	mtp_angle_r	hip_flexion_l	hip_adduction_l	hip_rotation_l	knee_angle_l	ankle_angle_l	subtalar_angle_l	mtp_angle_l	lumbar_extension	lumbar_bending	lumbar_rotation
      3.48500000	      6.61729984	      3.51089125	     -8.02295034	      0.89477593	      1.02459466	      0.00487665	      8.70158105	    -10.95939638	     -0.43788305	    -62.80215620	      4.03300568	     -2.57194773	     18.16450142	      1.80700299	      6.13394601	    -14.89855138	     -5.75393654	      0.27793102	      4.62226551	      8.06527848	    -14.41167074	     -4.80362701	      5.03116206
      3.49000000	      6.64142343	      3.53365582	     -8.01710094	      0.89892622	      1.02504283	      0.00450293	      9.34232336	    -10.90089666	     -0.27787466	    -62.92016826	      4.48977631	     -2.38499318	     18.20463306	      1.42107255	      6.24234917	    -14.86640435	     -5.55764986	      0.37832606	      4.64279192	      8.01812395	    -14.49663160	     -4.83072815	      4.95280224
      3.49500000	      6.65538479	      3.55041943	     -8.02668078	      0.90308292	      1.02546337	      0.00419701	      9.98123804	    -10.82015668	     -0.10810177	    -62.97486587	      4.91889811	     -2.22638981	     18.21644513	      1.04573138	      6.33461988	    -14.89285083	     -5.36532173	      0.49741963	      4.79010631	      7.93834627	    -14.56461930	     -4.85467635	      4.89263266
      3.50000000	      6.66363603	      3.55508916	     -8.05137287	      0.90726287	      1.02586265	      0.00394014	     10.60881438	    -10.71289956	      0.07473980	    -62.96563234	      5.32315680	     -2.05853507	     18.18642400	      0.67158796	      6.41030785	    -14.96140987	     -5.17541992	      0.65427185	      4.99359558	      7.79754438	    -14.62324884	     -4.86849292	      4.86855648
      3.50500000	      6.73307018	      3.50294458	     -8.13893348	      0.91147704	      1.02638292	      0.00385948	     11.13968543	    -10.51275186	      0.31465276	    -62.86298986	      5.72473696	     -2.00441858	     17.56836587	      0.21317590	      6.42672690	    -15.14150790	     -4.98076273	      0.97184997	      5.35175726	      6.62424018	    -14.74495682	     -4.84714957	      4.92387065
      3.51000000	      6.74632854	      3.49809486	     -8.05284929	      0.91562552	      1.02678385	      0.00345799	     11.68423164	    -10.41077228	      0.36288973	    -62.70734404	      6.09421950	     -1.87491705	     17.57173504	     -0.14899088	      6.49157217	    -15.06471493	     -4.81915142	      1.08607823	      5.49724305	      6.58003389	    -14.82277317	     -4.82449256	      4.77292683
      3.51500000	      6.76347256	      3.45552543	     -7.99523851	      0.91977779	      1.02719144	      0.00313807	     12.20407973	    -10.24999158	      0.42797840	    -62.48036551	      6.40902623	     -1.86477238	     17.57496609	     -0.52595302	      6.51400706	    -14.99254980	     -4.65192803	      1.21520928	      5.61011404	      6.55813700	    -14.90062852	     -4.76808581	      4.68277485
      3.52000000	      6.91089654	      3.38814730	     -8.00406700	      0.92409680	      1.02780659	      0.00300696	     12.53892534	    -10.05975967	      0.54477623	    -62.14899728	      6.72068064	     -1.81827633	     17.31372483	     -1.07152000	      6.51913165	    -15.14410686	     -4.46668221	      1.44708039	      6.05717458	      6.17299532	    -15.10476107	     -4.72375657	      4.62700873
      3.52500000	      6.91549796	      3.33150862	     -7.92597398	      0.92826623	      1.02817809	      0.00268642	     13.02010271	     -9.87484801	      0.59157816	    -61.79122035	      6.98444750	     -1.82304503	     17.30510077	     -1.43168347	      6.52178016	    -15.04000822	     -4.31306447	      1.58575329	      6.11807616	      6.14103677	    -15.16628287	     -4.64281607	      4.53729558
      3.53000000	      6.96713038	      3.21615479	     -7.81028267	      0.93252097	      1.02864104	      0.00237901	     13.38494157	     -9.64328936	      0.56633315	    -61.33554388	      7.21336777	     -1.83160586	     17.21833908	     -1.84487460	      6.45558955	    -14.97272869	     -4.19098748	      1.79870319	      6.34239402	      6.02310109	    -15.28424546	     -4.49857471	      4.37456647
      3.53500000	      7.19718278	      3.12239864	     -7.78083733	      0.93697476	      1.02933288	      0.00219680	     13.53361031	     -9.45842889	      0.59044411	    -60.80144078	      7.49300006	     -1.81838583	     16.52124246	     -2.51475778	      6.45221168	    -15.00903141	     -3.96067724	      2.08307873	      6.67136510	      4.95719766	    -15.56348746	     -4.41683331	      4.32516753
      3.54000000	      7.20359065	      3.02726211	     -7.60476831	      0.94124792	      1.02968670	      0.00187800	     13.89948681	     -9.24706299	      0.49933604	    -60.23721832	      7.64952124	     -1.99485136	     16.46206196	     -2.85855090	      6.38531199	    -14.85718772	     -3.87685833	      2.30070479	      6.89307524	      4.92109082	    -15.62716695	     -4.27931500	      4.10378588
      3.54500000	      7.34292007	      2.90562538	     -7.42492699	      0.94563097	      1.03023406	      0.00153381	     14.06892986	     -9.04401731	      0.37316688	    -59.57785671	      7.76358980	     -2.13941568	     16.36688438	     -3.38603138	      6.31530510	    -14.67679233	     -3.73296329	      2.51875947	      7.11082215	      4.82017550	    -15.82633902	     -4.12126380	      3.91675874
      3.55000000	      7.50220774	      2.80555338	     -7.25365316	      0.95013672	      1.03079030	      0.00122351	     14.18956472	     -8.87533459	      0.23266793	    -58.86005631	      7.90523225	     -2.29327098	     16.23272886	     -3.94772869	      6.27264828	    -14.54879993	     -3.56744820	      2.71604738	      7.32478730	      4.61678880	    -16.03144183	     -3.98899986	      3.70922906
      3.55500000	      7.60810847	      2.67992862	     -7.07130086	      0.95459519	      1.03124645	      0.00095126	     14.35040735	     -8.65787845	      0.10614030	    -58.09624824	      7.97426588	     -2.45093631	     16.13548259	     -4.43444668	      6.18157080	    -14.37529158	     -3.44338722	      2.95384696	      7.54149423	      4.49074118	    -16.17947808	     -3.82300797	      3.50934290
      3.56000000	      7.72320263	      2.54968592	     -6.86779776	      0.95913707	      1.03169797	      0.00066375	     14.46178580	     -8.45071192	     -0.06351837	    -57.26668143	      8.05002096	     -2.62702624	     16.05723548	     -4.93176259	      6.08421773	    -14.22759612	     -3.32653840	      3.17521068	      7.73173903	      4.39190373	    -16.33104312	     -3.64410435	      3.27114418
      3.56500000	      7.87681405	      2.42257713	     -6.64775457	      0.96371888	      1.03219979	      0.00038257	     14.49852075	     -8.25918006	     -0.25941787	    -56.37486018	      8.09364105	     -2.82345396	     15.97379589	     -5.47641399	      5.98797855	    -14.04108937	     -3.20232278	      3.40476459	      7.94781796	      4.27976303	    -16.51829335	     -3.46973512	      3.02930486
